<svg width="72" height="80" viewBox="0 0 72 80" fill="none" xmlns="http://www.w3.org/2000/svg">
<g id="icon">
<g id="gear">
<g id="outer">
<path id="subtract" fill-rule="evenodd" clip-rule="evenodd" d="M40 7.99163C39.1651 7.9913 38.3273 8.02385 37.4885 8.09004L31.6596 0.872002C29.3165 1.37424 26.9857 2.09501 24.6927 3.04482C22.3996 3.99463 20.2418 5.13309 18.2299 6.43476L19.2121 15.6604C17.9282 16.7565 16.743 17.9453 15.6626 19.2124L6.43847 18.2303C3.78476 22.3294 1.89696 26.887 0.874908 31.6619L8.09177 37.4899C7.95984 39.1498 7.95724 40.8286 8.09004 42.5115L0.871998 48.3404C1.37424 50.6835 2.095 53.0143 3.04482 55.3073C3.99463 57.6004 5.13309 59.7582 6.43476 61.7701L15.6604 60.7879C16.7565 62.0718 17.9453 63.257 19.2124 64.3374L18.2303 73.5615C22.3294 76.2152 26.887 78.103 31.6619 79.1251L37.4899 71.9082C38.3225 71.9744 39.1598 72.008 40 72.0084V64.0063C30.5855 64.0025 21.654 58.4238 17.8269 49.1844C12.7545 36.9385 18.5697 22.8993 30.8156 17.8269C33.822 16.5816 36.9366 15.9925 40 15.9937V7.99163Z" fill="#6C90B8"/>
</g>
<g id="inner">
<path id="subtract_2" fill-rule="evenodd" clip-rule="evenodd" d="M40 64L40 56C31.1634 56 24 48.8366 24 40C24 31.1634 31.1634 24 40 24L40 16C26.7452 16 16 26.7452 16 40C16 53.2548 26.7452 64 40 64Z" fill="#97BEDB"/>
</g>
</g>
<g id="letter">
<g id="section_3">
<path id="subtract_3" fill-rule="evenodd" clip-rule="evenodd" d="M40 16V8C49.8094 8 58.5879 12.4138 64.4579 19.3637L58.3434 24.5228C53.9409 19.3103 47.3571 16 40 16ZM58.3434 55.4772C53.9409 60.6897 47.3571 64 40 64V72C49.8094 72 58.5879 67.5862 64.4579 60.6363L58.3434 55.4772ZM72 40.0223C72 40.0149 72 40.0074 72 40C72 39.9926 72 39.9851 72 39.9777V40.0223Z" fill="#587AA1"/>
</g>
<g id="section_2">
<path id="subtract_4" fill-rule="evenodd" clip-rule="evenodd" d="M51.8559 50.7444C48.9286 53.9726 44.7011 56 40 56V64C47.0516 64 53.3929 60.9589 57.7838 56.1166L51.8559 50.7444ZM57.7838 23.8834C53.3929 19.0411 47.0516 16 40 16V24C44.7011 24 48.9286 26.0274 51.8559 29.2556L57.7838 23.8834Z" fill="#81A6C7"/>
</g>
<g id="section_1">
<path id="subtract_5" fill-rule="evenodd" clip-rule="evenodd" d="M45.6569 45.6569C44.2091 47.1046 42.2091 48 40 48V56C44.4183 56 48.4183 54.2091 51.3137 51.3137L45.6569 45.6569ZM51.3137 28.6863C48.4183 25.7909 44.4183 24 40 24V32C42.2091 32 44.2091 32.8954 45.6569 34.3431L51.3137 28.6863Z" fill="#97BEDB"/>
</g>
<g id="section_0">
<path id="subtract_6" fill-rule="evenodd" clip-rule="evenodd" d="M44.9978 33.7528L40 40V32C41.8909 32 43.6285 32.656 44.9978 33.7528ZM44.9978 46.2472C43.6285 47.344 41.8909 48 40 48V40L44.9978 46.2472Z" fill="#DDEFFF"/>
</g>
</g>
</g>
</svg>
