<svg width="128" height="128" viewBox="0 0 128 128" fill="none" xmlns="http://www.w3.org/2000/svg">
<g id="frame" clip-path="url(#clip0_0_1)">
<g id="icon">
<path id="vector" d="M64 0C65.4145 0 66.771 0.561903 67.7712 1.5621C68.7714 2.56229 69.3333 3.91885 69.3333 5.33333V26.6667C69.3333 28.0812 68.7714 29.4377 67.7712 30.4379C66.771 31.4381 65.4145 32 64 32C62.5855 32 61.229 31.4381 60.2288 30.4379C59.2286 29.4377 58.6667 28.0812 58.6667 26.6667V5.33333C58.6667 3.91885 59.2286 2.56229 60.2288 1.5621C61.229 0.561903 62.5855 0 64 0ZM26.288 18.7467C25.2821 17.7752 23.9349 17.2376 22.5365 17.2497C21.1381 17.2619 19.8005 17.8228 18.8116 18.8116C17.8228 19.8005 17.2619 21.1381 17.2497 22.5365C17.2376 23.9349 17.7752 25.2821 18.7467 26.288L33.8293 41.3707C34.8352 42.3422 36.1824 42.8797 37.5808 42.8676C38.9792 42.8554 40.3169 42.2945 41.3057 41.3057C42.2945 40.3169 42.8554 38.9792 42.8676 37.5808C42.8797 36.1824 42.3422 34.8352 41.3707 33.8293L26.288 18.7467ZM5.33333 58.6667C3.91885 58.6667 2.56229 59.2286 1.5621 60.2288C0.561903 61.229 0 62.5855 0 64C0 65.4145 0.561903 66.771 1.5621 67.7712C2.56229 68.7714 3.91885 69.3333 5.33333 69.3333H26.6667C28.0812 69.3333 29.4377 68.7714 30.4379 67.7712C31.4381 66.771 32 65.4145 32 64C32 62.5855 31.4381 61.229 30.4379 60.2288C29.4377 59.2286 28.0812 58.6667 26.6667 58.6667H5.33333ZM96 64C96 62.5855 96.5619 61.229 97.5621 60.2288C98.5623 59.2286 99.9188 58.6667 101.333 58.6667H122.667C124.081 58.6667 125.438 59.2286 126.438 60.2288C127.438 61.229 128 62.5855 128 64C128 65.4145 127.438 66.771 126.438 67.7712C125.438 68.7714 124.081 69.3333 122.667 69.3333H101.333C99.9188 69.3333 98.5623 68.7714 97.5621 67.7712C96.5619 66.771 96 65.4145 96 64ZM94.1707 86.6293C93.1648 85.6578 91.8176 85.1203 90.4192 85.1324C89.0208 85.1446 87.6832 85.7055 86.6943 86.6943C85.7055 87.6832 85.1446 89.0208 85.1324 90.4192C85.1203 91.8176 85.6578 93.1648 86.6293 94.1707L101.712 109.253C102.204 109.763 102.792 110.169 103.443 110.449C104.094 110.728 104.794 110.875 105.502 110.881C106.21 110.887 106.912 110.753 107.568 110.484C108.223 110.216 108.819 109.82 109.319 109.319C109.82 108.819 110.216 108.223 110.484 107.568C110.753 106.912 110.887 106.21 110.881 105.502C110.875 104.794 110.728 104.094 110.449 103.443C110.169 102.792 109.763 102.204 109.253 101.712L94.1707 86.6293ZM41.3707 94.1707C41.8801 93.6787 42.2864 93.0902 42.5659 92.4395C42.8454 91.7888 42.9925 91.089 42.9987 90.3808C43.0048 89.6727 42.8699 88.9704 42.6017 88.3149C42.3336 87.6595 41.9375 87.064 41.4368 86.5632C40.936 86.0625 40.3405 85.6665 39.6851 85.3983C39.0296 85.1301 38.3274 84.9952 37.6192 85.0013C36.911 85.0075 36.2112 85.1546 35.5605 85.4341C34.9098 85.7136 34.3213 86.1199 33.8293 86.6293L18.7467 101.707C18.2373 102.199 17.831 102.787 17.5515 103.438C17.2719 104.089 17.1248 104.788 17.1187 105.497C17.1125 106.205 17.2475 106.907 17.5156 107.562C17.7838 108.218 18.1798 108.813 18.6806 109.314C19.1813 109.815 19.7768 110.211 20.4322 110.479C21.0877 110.747 21.79 110.882 22.4981 110.876C23.2063 110.87 23.9061 110.723 24.5568 110.443C25.2075 110.164 25.796 109.757 26.288 109.248L41.3707 94.1707ZM109.253 26.288C110.225 25.2821 110.762 23.9349 110.75 22.5365C110.738 21.1381 110.177 19.8005 109.188 18.8116C108.2 17.8228 106.862 17.2619 105.463 17.2497C104.065 17.2376 102.718 17.7752 101.712 18.7467L86.6293 33.8293C86.1199 34.3213 85.7136 34.9098 85.4341 35.5605C85.1546 36.2112 85.0075 36.911 85.0013 37.6192C84.9952 38.3274 85.1301 39.0296 85.3983 39.6851C85.6665 40.3405 86.0625 40.936 86.5632 41.4368C87.064 41.9375 87.6595 42.3336 88.3149 42.6017C88.9704 42.8699 89.6727 43.0048 90.3808 42.9987C91.089 42.9925 91.7888 42.8454 92.4395 42.5659C93.0902 42.2864 93.6787 41.8801 94.1707 41.3707L109.253 26.288ZM69.3333 101.333C69.3333 99.9188 68.7714 98.5623 67.7712 97.5621C66.771 96.5619 65.4145 96 64 96C62.5855 96 61.229 96.5619 60.2288 97.5621C59.2286 98.5623 58.6667 99.9188 58.6667 101.333V122.667C58.6667 124.081 59.2286 125.438 60.2288 126.438C61.229 127.438 62.5855 128 64 128C65.4145 128 66.771 127.438 67.7712 126.438C68.7714 125.438 69.3333 124.081 69.3333 122.667V101.333ZM64 37.3333C56.9276 37.3333 50.1448 40.1429 45.1438 45.1438C40.1429 50.1448 37.3333 56.9276 37.3333 64C37.3333 71.0724 40.1429 77.8552 45.1438 82.8562C50.1448 87.8572 56.9276 90.6667 64 90.6667C71.0724 90.6667 77.8552 87.8572 82.8562 82.8562C87.8572 77.8552 90.6667 71.0724 90.6667 64C90.6667 56.9276 87.8572 50.1448 82.8562 45.1438C77.8552 40.1429 71.0724 37.3333 64 37.3333Z" fill="black"/>
</g>
</g>
<defs>
<clipPath id="clip0_0_1">
<rect width="128" height="128" fill="white"/>
</clipPath>
</defs>
</svg>
