<svg xmlns="http://www.w3.org/2000/svg" width="47" height="47"><defs transform="translate(-78.197 -84.969)"><clipPath id="a"><path d="M-78.197 115.031h200v-200h-200z"/></clipPath></defs><g fill="#375B7A" stroke="#375B7A" stroke-width=".25" clip-path="url(#a)"><path d="m23.568 36.106-2.177-.19-2.111-.566-1.98-.924-1.791-1.253-1.545-1.546-1.254-1.79-.924-1.98-.565-2.112-.19-2.177.19-2.177.565-2.11.924-1.982 1.254-1.79 1.545-1.545 1.79-1.254 1.981-.924 2.111-.565 2.177-.19V1h-1.63l-.627.168-.458.459-.168.627-.138 2.752-1.846.396-1.797.58-1.496-2.315-.458-.458-.627-.168-.627.168-2.824 1.63-.458.459-.168.626.168.627 1.256 2.452-1.4 1.267-1.267 1.4-2.452-1.256-.627-.168-.627.168-.458.459-1.63 2.823-.168.627.168.626.459.46 2.314 1.494-.58 1.797-.396 1.847-2.752.137-.627.168-.46.46-.167.626v3.26l.168.627.459.46.627.167 2.752.137.396 1.847.58 1.797-2.314 1.495-.46.46-.167.626.168.627 1.63 2.823.458.46.627.167.627-.168 2.452-1.257 1.267 1.401 1.4 1.266-1.256 2.452-.168.627.168.627.458.46 2.824 1.63.627.167.627-.168.458-.459 1.496-2.315 1.797.58 1.846.397.138 2.752.168.626.458.46.627.167h1.63z"/></g><g fill="#0C163A" stroke="#0C163A" stroke-width=".25" clip-path="url(#a)"><path d="m23.568 11.03 2.177.19 2.111.566 1.981.924 1.79 1.254 1.546 1.545 1.253 1.79.924 1.981.566 2.111.19 2.177-.19 2.177-.566 2.111-.924 1.981-1.253 1.79-1.546 1.546-1.79 1.253-1.98.924-2.112.565-2.177.191v10.03h1.63l.627-.168.46-.459.167-.626.137-2.752 1.847-.397 1.797-.58 1.495 2.315.46.46.626.167.627-.168 2.823-1.63.46-.459.167-.627-.168-.627-1.257-2.452 1.401-1.266 1.266-1.4 2.452 1.256.627.168.627-.168.46-.459 1.63-2.823.167-.627-.168-.627-.459-.459-2.314-1.495.58-1.797.396-1.847 2.752-.137.627-.168.46-.459.166-.627v-3.26l-.167-.627-.459-.459-.627-.168-2.752-.137-.397-1.847-.579-1.797 2.314-1.495.46-.459.167-.626-.168-.627-1.63-2.823-.459-.46-.627-.167-.627.168-2.452 1.256-1.266-1.4-1.4-1.267 1.256-2.452.168-.627-.168-.626-.459-.46-2.823-1.63-.627-.167-.627.168-.459.458-1.495 2.315-1.797-.58-1.847-.396-.137-2.752-.168-.627-.459-.459L25.198 1h-1.63z"/></g><g fill="#D7E4F2" stroke="#D7E4F2" stroke-width=".25" clip-path="url(#a)"><path d="M23.568 11.03v6.27l2.508 3.76 3.761 2.508-3.76 2.508-2.509 3.761v6.27l2.177-.192 2.111-.565 1.981-.924 1.79-1.253 1.546-1.546 1.253-1.79.924-1.98.566-2.112.19-2.177-.19-2.177-.566-2.11-.924-1.982-1.253-1.79-1.546-1.545-1.79-1.254-1.98-.924-2.112-.565z"/></g><g fill="#F1F7FC" stroke="#F1F7FC" stroke-width=".25" clip-path="url(#a)"><path d="M23.568 17.3v-6.27l-2.177.19-2.111.566-1.98.924-1.791 1.254-1.545 1.545-1.254 1.79-.924 1.981-.565 2.111-.19 2.177.19 2.177.565 2.111.924 1.981 1.254 1.79 1.545 1.546 1.79 1.253 1.981.924 2.111.565 2.177.191v-6.269l-2.507-3.76-3.762-2.509 3.762-2.508z"/></g><g fill="#FFB000" stroke="#FFB000" stroke-width=".25" clip-path="url(#a)"><path d="m23.568 17.3-2.507 3.76-3.762 2.508 3.762 2.508 2.507 3.761z"/></g><g fill="#845B00" stroke="#845B00" stroke-width=".25" clip-path="url(#a)"><path d="m26.076 21.06-2.508-3.76v12.537l2.508-3.76 3.761-2.509z"/></g></svg>