<?xml version="1.0" encoding="utf-8" standalone="no"?>
<svg viewBox="0 0 200 200" version="1.1" xmlns="http://www.w3.org/2000/svg" xmlns:xlink="http://www.w3.org/1999/xlink" stroke-linecap="round" stroke-linejoin="round" fill-rule="evenodd" xml:space="preserve" >
<defs >
<clipPath id="clipId0" >
<path d="M0,200 200,200 200,0 0,0 z" />
</clipPath>
</defs>
<g clip-path="url(#clipId0)" fill="none" stroke="rgb(0,0,0)" stroke-width="0.1" />
<g clip-path="url(#clipId0)" fill="rgb(55,91,122)" stroke="rgb(55,91,122)" stroke-width="0.25" >
<polygon points="101.765,121.075 99.588,120.884 97.4769,120.319 95.4962,119.395 93.7059,118.142 92.1605,116.596 90.907,114.806 89.9833,112.825 89.4177,110.714 89.2272,108.537 89.4177,106.36 89.9833,104.249 90.907,102.268 92.1605,100.478 93.7059,98.9324 95.4962,97.6788 97.4769,96.7552 99.588,96.1895 101.765,95.9991 101.765,85.9687 100.135,85.9687 99.5083,86.1367 99.0494,86.5956 98.8814,87.2225 98.7439,89.9744 96.8976,90.3709 95.1004,90.9506 93.6053,88.6362 93.1464,88.1773 92.5195,88.0093 91.8926,88.1773 89.0694,89.8072 88.6105,90.2662 88.4426,90.8931 88.6105,91.52 89.8673,93.9719 88.4667,95.2385 87.2001,96.6391 84.7481,95.3824 84.1212,95.2144 83.4943,95.3824 83.0354,95.8413 81.4055,98.6644 81.2375,99.2913 81.4055,99.9182 81.8644,100.377 84.1788,101.872 83.5991,103.669 83.2025,105.516 80.4506,105.653 79.8238,105.821 79.3648,106.28 79.1969,106.907 79.1969,110.167 79.3648,110.794 79.8238,111.253 80.4506,111.421 83.2025,111.558 83.5991,113.405 84.1788,115.202 81.8644,116.697 81.4055,117.156 81.2375,117.783 81.4055,118.41 83.0354,121.233 83.4943,121.692 84.1212,121.86 84.7481,121.692 87.2001,120.435 88.4667,121.836 89.8673,123.102 88.6105,125.554 88.4426,126.181 88.6105,126.808 89.0694,127.267 91.8926,128.897 92.5195,129.065 93.1464,128.897 93.6053,128.438 95.1004,126.123 96.8976,126.703 98.7439,127.1 98.8814,129.852 99.0494,130.478 99.5083,130.937 100.135,131.105 101.765,131.105 " />
</g>
<g clip-path="url(#clipId0)" fill="rgb(12,22,58)" stroke="rgb(12,22,58)" stroke-width="0.25" >
<polygon points="101.765,95.9991 103.942,96.1895 106.053,96.7552 108.034,97.6788 109.824,98.9324 111.37,100.478 112.623,102.268 113.547,104.249 114.113,106.36 114.303,108.537 114.113,110.714 113.547,112.825 112.623,114.806 111.37,116.596 109.824,118.142 108.034,119.395 106.053,120.319 103.942,120.884 101.765,121.075 101.765,131.105 103.395,131.105 104.022,130.937 104.481,130.478 104.649,129.852 104.786,127.1 106.633,126.703 108.43,126.123 109.925,128.438 110.384,128.897 111.011,129.065 111.638,128.897 114.461,127.267 114.92,126.808 115.088,126.181 114.92,125.554 113.663,123.102 115.064,121.836 116.33,120.435 118.782,121.692 119.409,121.86 120.036,121.692 120.495,121.233 122.125,118.41 122.293,117.783 122.125,117.156 121.666,116.697 119.352,115.202 119.931,113.405 120.328,111.558 123.08,111.421 123.707,111.253 124.166,110.794 124.333,110.167 124.333,106.907 124.166,106.28 123.707,105.821 123.08,105.653 120.328,105.516 119.931,103.669 119.352,101.872 121.666,100.377 122.125,99.9182 122.293,99.2913 122.125,98.6644 120.495,95.8413 120.036,95.3824 119.409,95.2144 118.782,95.3824 116.33,96.6391 115.064,95.2385 113.663,93.9719 114.92,91.52 115.088,90.8931 114.92,90.2662 114.461,89.8072 111.638,88.1773 111.011,88.0093 110.384,88.1773 109.925,88.6362 108.43,90.9506 106.633,90.3709 104.786,89.9744 104.649,87.2225 104.481,86.5956 104.022,86.1367 103.395,85.9687 101.765,85.9687 " />
</g>
<g clip-path="url(#clipId0)" fill="rgb(215,228,242)" stroke="rgb(215,228,242)" stroke-width="0.25" >
<polygon points="101.765,95.9991 101.765,102.268 104.273,106.029 108.034,108.537 104.273,111.045 101.765,114.806 101.765,121.075 103.942,120.884 106.053,120.319 108.034,119.395 109.824,118.142 111.37,116.596 112.623,114.806 113.547,112.825 114.113,110.714 114.303,108.537 114.113,106.36 113.547,104.249 112.623,102.268 111.37,100.478 109.824,98.9324 108.034,97.6788 106.053,96.7552 103.942,96.1895 " />
</g>
<g clip-path="url(#clipId0)" fill="rgb(241,247,252)" stroke="rgb(241,247,252)" stroke-width="0.25" >
<polygon points="101.765,102.268 101.765,95.9991 99.588,96.1895 97.4769,96.7552 95.4962,97.6788 93.7059,98.9324 92.1605,100.478 90.907,102.268 89.9833,104.249 89.4177,106.36 89.2272,108.537 89.4177,110.714 89.9833,112.825 90.907,114.806 92.1605,116.596 93.7059,118.142 95.4962,119.395 97.4769,120.319 99.588,120.884 101.765,121.075 101.765,114.806 99.2576,111.045 95.4962,108.537 99.2576,106.029 " />
</g>
<g clip-path="url(#clipId0)" fill="rgb(255,176,0)" stroke="rgb(255,176,0)" stroke-width="0.25" >
<polygon points="101.765,102.268 99.2576,106.029 95.4962,108.537 99.2576,111.045 101.765,114.806 " />
</g>
<g clip-path="url(#clipId0)" fill="rgb(132,91,0)" stroke="rgb(132,91,0)" stroke-width="0.25" >
<polygon points="104.273,106.029 101.765,102.268 101.765,114.806 104.273,111.045 108.034,108.537 " />
</g>
</svg>
