<?xml version="1.0" encoding="utf-8" standalone="no"?>
<svg viewBox="0 0 200 200" version="1.1" xmlns="http://www.w3.org/2000/svg" xmlns:xlink="http://www.w3.org/1999/xlink" stroke-linecap="round" stroke-linejoin="round" fill-rule="evenodd" xml:space="preserve" >
<defs >
<clipPath id="clipId0" >
<path d="M0,200 200,200 200,0 0,0 z" />
</clipPath>
</defs>
<g clip-path="url(#clipId0)" fill="none" stroke="rgb(0,0,0)" stroke-width="0.1" />
<g clip-path="url(#clipId0)" fill="rgb(55,91,122)" stroke="rgb(55,91,122)" stroke-width="0.25" >
<polygon points="100,134.404 96.4038,134.216 92.847,133.652 89.3685,132.72 86.0066,131.43 82.7979,129.795 79.7777,127.834 76.9791,125.567 74.4327,123.021 72.1665,120.222 70.2051,117.202 68.5702,113.993 67.2797,110.631 66.3477,107.153 65.7843,103.596 65.5958,100 65.7843,96.4038 66.3477,92.847 67.2797,89.3685 68.5702,86.0066 70.2051,82.7979 72.1665,79.7777 74.4327,76.9791 76.9791,74.4327 79.7777,72.1665 82.7979,70.2051 86.0066,68.5702 89.3685,67.2797 92.847,66.3477 96.4038,65.7843 100,65.5958 100,38.0725 95.5275,38.0725 94.4643,38.2409 93.5052,38.7296 92.7441,39.4907 92.2554,40.4498 92.087,41.5129 91.7095,49.0641 88.3196,49.733 84.982,50.6273 81.7118,51.7429 77.6093,45.3922 76.9319,44.5557 76.0291,43.9695 74.9894,43.6909 73.9145,43.7472 72.9096,44.133 65.1629,48.6055 64.3264,49.2829 63.7402,50.1856 63.4616,51.2254 63.5179,52.3003 63.9037,53.3052 67.3522,60.0334 64.751,62.3077 62.3077,64.751 60.0334,67.3522 53.3052,63.9037 52.3003,63.5179 51.2254,63.4616 50.1856,63.7402 49.2829,64.3264 48.6055,65.1629 44.133,72.9096 43.7472,73.9145 43.6909,74.9894 43.9695,76.0291 44.5557,76.9319 45.3922,77.6093 51.7429,81.7118 50.6273,84.982 49.733,88.3196 49.0641,91.7095 41.5129,92.087 40.4498,92.2554 39.4907,92.7441 38.7296,93.5052 38.2409,94.4643 38.0725,95.5275 38.0725,104.473 38.2409,105.536 38.7296,106.495 39.4907,107.256 40.4498,107.745 41.5129,107.913 49.0641,108.291 49.733,111.68 50.6273,115.018 51.7429,118.288 45.3922,122.391 44.5557,123.068 43.9695,123.971 43.6909,125.011 43.7472,126.085 44.133,127.09 48.6055,134.837 49.2829,135.674 50.1856,136.26 51.2254,136.538 52.3003,136.482 53.3052,136.096 60.0334,132.648 62.3077,135.249 64.751,137.692 67.3522,139.967 63.9037,146.695 63.5179,147.7 63.4616,148.775 63.7402,149.814 64.3264,150.717 65.1629,151.394 72.9096,155.867 73.9145,156.253 74.9894,156.309 76.0291,156.031 76.9319,155.444 77.6093,154.608 81.7118,148.257 84.982,149.373 88.3196,150.267 91.7095,150.936 92.087,158.487 92.2554,159.55 92.7441,160.509 93.5052,161.27 94.4643,161.759 95.5275,161.927 100,161.927 " />
</g>
<g clip-path="url(#clipId0)" fill="rgb(12,22,58)" stroke="rgb(12,22,58)" stroke-width="0.25" >
<polygon points="134.404,100 134.216,103.596 133.652,107.153 132.72,110.631 131.43,113.993 129.795,117.202 127.834,120.222 125.567,123.021 123.021,125.567 120.222,127.834 117.202,129.795 113.993,131.43 110.631,132.72 107.153,133.652 103.596,134.216 100,134.404 100,161.927 104.473,161.927 105.536,161.759 106.495,161.27 107.256,160.509 107.745,159.55 107.913,158.487 108.291,150.936 111.68,150.267 115.018,149.373 118.288,148.257 122.391,154.608 123.068,155.444 123.971,156.031 125.011,156.309 126.085,156.253 127.09,155.867 134.837,151.394 135.674,150.717 136.26,149.814 136.538,148.775 136.482,147.7 136.096,146.695 132.648,139.967 135.249,137.692 137.692,135.249 139.967,132.648 146.695,136.096 147.7,136.482 148.775,136.538 149.814,136.26 150.717,135.674 151.394,134.837 155.867,127.09 156.253,126.085 156.309,125.011 156.031,123.971 155.444,123.068 154.608,122.391 148.257,118.288 149.373,115.018 150.267,111.68 150.936,108.291 158.487,107.913 159.55,107.745 160.509,107.256 161.27,106.495 161.759,105.536 161.927,104.473 161.927,95.5275 161.759,94.4643 161.27,93.5052 160.509,92.7441 159.55,92.2554 158.487,92.087 150.936,91.7095 150.267,88.3196 149.373,84.982 148.257,81.7118 154.608,77.6093 155.444,76.9319 156.031,76.0291 156.309,74.9894 156.253,73.9145 155.867,72.9096 151.394,65.1629 150.717,64.3264 149.814,63.7402 148.775,63.4616 147.7,63.5179 146.695,63.9037 139.967,67.3522 137.692,64.751 135.249,62.3077 132.648,60.0334 136.096,53.3052 136.482,52.3003 136.538,51.2254 136.26,50.1856 135.674,49.2829 134.837,48.6055 127.09,44.133 126.085,43.7472 125.011,43.6909 123.971,43.9695 123.068,44.5557 122.391,45.3922 118.288,51.7429 115.018,50.6273 111.68,49.733 108.291,49.0641 107.913,41.5129 107.745,40.4498 107.256,39.4907 106.495,38.7296 105.536,38.2409 104.473,38.0725 100,38.0725 100,65.5958 103.596,65.7843 107.153,66.3477 110.631,67.2797 113.993,68.5702 117.202,70.2051 120.222,72.1665 123.021,74.4327 125.567,76.9791 127.834,79.7777 129.795,82.7979 131.43,86.0066 132.72,89.3685 133.652,92.847 134.216,96.4038 " />
</g>
<g clip-path="url(#clipId0)" fill="rgb(215,228,242)" stroke="rgb(215,228,242)" stroke-width="0.25" >
<polygon points="100,134.404 103.596,134.216 107.153,133.652 110.631,132.72 113.993,131.43 117.202,129.795 120.222,127.834 123.021,125.567 125.567,123.021 127.834,120.222 129.795,117.202 131.43,113.993 132.72,110.631 133.652,107.153 134.216,103.596 134.404,100 134.216,96.4038 133.652,92.847 132.72,89.3685 131.43,86.0066 129.795,82.7979 127.834,79.7777 125.567,76.9791 123.021,74.4327 120.222,72.1665 117.202,70.2051 113.993,68.5702 110.631,67.2797 107.153,66.3477 103.596,65.7843 100,65.5958 100,82.7979 106.881,93.1192 117.202,100 106.881,106.881 100,117.202 " />
</g>
<g clip-path="url(#clipId0)" fill="rgb(241,247,252)" stroke="rgb(241,247,252)" stroke-width="0.25" >
<polygon points="100,65.5958 96.4038,65.7843 92.847,66.3477 89.3685,67.2797 86.0066,68.5702 82.7979,70.2051 79.7777,72.1665 76.9791,74.4327 74.4327,76.9791 72.1665,79.7777 70.2051,82.7979 68.5702,86.0066 67.2797,89.3685 66.3477,92.847 65.7843,96.4038 65.5958,100 65.7843,103.596 66.3477,107.153 67.2797,110.631 68.5702,113.993 70.2051,117.202 72.1665,120.222 74.4327,123.021 76.9791,125.567 79.7777,127.834 82.7979,129.795 86.0066,131.43 89.3685,132.72 92.847,133.652 96.4038,134.216 100,134.404 100,117.202 93.1192,106.881 82.7979,100 93.1192,93.1192 100,82.7979 " />
</g>
<g clip-path="url(#clipId0)" fill="rgb(255,176,0)" stroke="rgb(255,176,0)" stroke-width="0.25" >
<polygon points="100,82.7979 93.1192,93.1192 82.7979,100 93.1192,106.881 100,117.202 " />
</g>
<g clip-path="url(#clipId0)" fill="rgb(132,91,0)" stroke="rgb(132,91,0)" stroke-width="0.25" >
<polygon points="100,82.7979 100,117.202 106.881,106.881 117.202,100 106.881,93.1192 " />
</g>
</svg>
