<svg width="128" height="128" viewBox="0 0 128 128" fill="none" xmlns="http://www.w3.org/2000/svg">
<g id="frame" clip-path="url(#clip0_0_1)">
<g id="icon">
<path id="vector" d="M67.5221 128C63.8634 127.998 60.2108 127.699 56.6003 127.106C38.9404 124.2 23.1527 114.383 12.7047 99.8113C2.2567 85.2399 -1.99727 67.1055 0.877084 49.391C2.48552 39.3064 6.36199 29.7213 12.2127 21.3623C18.0634 13.0032 25.7348 6.08953 34.6454 1.14525C36.1487 0.302867 37.8616 -0.0887756 39.5805 0.0168966C41.2993 0.122569 42.9517 0.72111 44.3412 1.74134C45.7614 2.71588 46.8687 4.08333 47.5282 5.67736C48.1877 7.27138 48.3711 9.02326 48.0561 10.7199C45.4782 24.4336 47.6271 39.0667 54.586 51.1516C61.5449 63.2364 72.5927 72.4194 85.725 77.0346C95.8383 80.5544 106.718 81.2372 117.19 79.0091C118.847 78.683 120.562 78.8275 122.141 79.4264C123.721 80.0254 125.102 81.0549 126.13 82.3989C127.157 83.7429 127.789 85.348 127.956 87.0332C128.122 88.7184 127.816 90.4167 127.072 91.9367C121.342 102.8 112.773 111.896 102.283 118.249C91.7927 124.602 79.7766 127.973 67.5221 128Z" fill="white"/>
</g>
</g>
<defs>
<clipPath id="clip0_0_1">
<rect width="128" height="128" fill="white"/>
</clipPath>
</defs>
</svg>
