<!DOCTYPE svg PUBLIC "-//W3C//DTD SVG 1.1//EN" "http://www.w3.org/Graphics/SVG/1.1/DTD/svg11.dtd">
<svg version="1.1" style="clip-rule:evenodd;fill-rule:evenodd;stroke-linejoin:round;stroke-miterlimit:2"
    xmlns="http://www.w3.org/2000/svg" xmlns:xlink="http://www.w3.org/1999/xlink" viewBox="0 0 24 24"
    xml:space="preserve">
    <path id="0" d="M10 4H4c-1.11 0-2 .89-2 2v12c0 1.097.903 2 2 2h16c1.097 0 2-.903 2-2V8a2 2 0 0 0-2-2h-8l-2-2z"
        fill-rule="nonzero" fill="#FFB000" />
    <path id="1"
        d="M 12.48 7.28 L 7.036 7.28 L 7.036 0.122 L 12.344 0.122 L 12.344 1.333 L 8.481 1.333 L 8.481 2.92 L 12.075 2.92 L 12.075 4.126 L 8.481 4.126 L 8.481 6.074 L 12.48 6.074 L 12.48 7.28 Z M 0 4.951 L 1.406 4.815 A 2.573 2.573 0 0 0 1.516 5.234 Q 1.659 5.63 1.921 5.855 Q 2.31 6.187 2.969 6.187 A 2.646 2.646 0 0 0 3.353 6.161 Q 3.549 6.132 3.708 6.071 A 1.095 1.095 0 0 0 4.021 5.891 A 1.119 1.119 0 0 0 4.229 5.667 A 0.807 0.807 0 0 0 4.375 5.2 A 0.72 0.72 0 0 0 4.34 4.972 A 0.62 0.62 0 0 0 4.226 4.768 A 0.698 0.698 0 0 0 4.097 4.651 Q 3.95 4.545 3.706 4.458 A 3.501 3.501 0 0 0 3.564 4.413 Q 3.342 4.347 2.915 4.238 A 56.342 56.342 0 0 0 2.55 4.146 A 7.748 7.748 0 0 1 1.965 3.978 Q 1.259 3.743 0.918 3.438 A 2.017 2.017 0 0 1 0.446 2.83 A 1.854 1.854 0 0 1 0.259 1.997 Q 0.259 1.45 0.569 0.974 A 1.869 1.869 0 0 1 1.237 0.36 A 2.364 2.364 0 0 1 1.462 0.249 Q 1.989 0.024 2.714 0.002 A 5.242 5.242 0 0 1 2.871 0 Q 4.219 0 4.9 0.591 A 2.039 2.039 0 0 1 5.6 1.957 A 2.778 2.778 0 0 1 5.615 2.168 L 4.17 2.232 A 1.916 1.916 0 0 0 4.092 1.918 Q 4.034 1.753 3.948 1.628 A 0.87 0.87 0 0 0 3.772 1.438 A 0.97 0.97 0 0 0 3.477 1.283 Q 3.341 1.237 3.174 1.215 A 2.492 2.492 0 0 0 2.856 1.196 A 2.477 2.477 0 0 0 2.473 1.224 Q 2.27 1.256 2.106 1.324 A 1.152 1.152 0 0 0 1.87 1.455 Q 1.647 1.617 1.641 1.884 A 0.665 0.665 0 0 0 1.641 1.899 A 0.534 0.534 0 0 0 1.805 2.288 A 0.752 0.752 0 0 0 1.855 2.334 A 0.924 0.924 0 0 0 2.027 2.443 Q 2.376 2.622 3.184 2.813 A 13.264 13.264 0 0 1 3.733 2.954 Q 4.229 3.094 4.558 3.239 A 2.957 2.957 0 0 1 4.744 3.328 A 2.039 2.039 0 0 1 5.41 3.876 A 1.987 1.987 0 0 1 5.535 4.055 A 1.838 1.838 0 0 1 5.766 4.643 Q 5.82 4.898 5.82 5.195 A 2.108 2.108 0 0 1 5.479 6.348 A 2.035 2.035 0 0 1 4.57 7.121 A 2.484 2.484 0 0 1 4.512 7.146 A 3.091 3.091 0 0 1 3.906 7.325 Q 3.479 7.407 2.954 7.407 A 4.706 4.706 0 0 1 2.149 7.343 Q 1.72 7.268 1.377 7.107 A 2.224 2.224 0 0 1 0.869 6.78 A 2.377 2.377 0 0 1 0.2 5.802 Q 0.065 5.447 0.008 5.017 A 4.432 4.432 0 0 1 0 4.951 Z"
        fill="#000000" transform="translate(7 11.5) scale(1.3)" />
</svg>